<svg width="223" height="223" viewBox="0 0 223 223" fill="none" xmlns="http://www.w3.org/2000/svg">
<g id="Frame" clip-path="url(#clip0_76_1395)">
<path id="Vector" d="M42.0784 70.3347C40.1956 65.4449 44.6538 60.5267 49.6564 61.8347L49.8951 61.9019L161.752 95.4929L176.259 99.8493L161.997 104.951C158.153 106.326 154.205 107.978 150.15 109.912L150.128 109.923L150.104 109.933C146.589 111.566 142.624 113.566 138.202 115.941C135.775 117.245 133.349 118.671 130.924 120.221L156.667 140.269L156.783 140.359L156.894 140.456C158.867 142.189 160.443 144.23 161.543 146.576C162.597 148.822 163.204 151.192 163.332 153.653C163.459 156.075 163.135 158.46 162.383 160.781C161.589 163.232 160.29 165.445 158.563 167.408L158.562 167.407C156.897 169.367 154.895 170.917 152.574 172.006C150.328 173.059 147.958 173.667 145.497 173.795C143.075 173.921 140.69 173.598 138.369 172.846C135.917 172.052 133.705 170.752 131.742 169.025L131.628 168.925L131.52 168.819L106.023 143.476C104.213 145.982 102.594 148.481 101.163 150.973C98.8142 155.062 96.9141 158.744 95.4448 162.026L95.4295 162.06L95.4144 162.092C93.655 165.873 92.2577 169.535 91.211 173.079L87.0571 187.141L81.7878 173.458L42.0784 70.3347Z" fill="white" stroke="url(#paint0_linear_76_1395)" stroke-width="9.92318"/>
</g>
<defs>
<linearGradient id="paint0_linear_76_1395" x1="89.9532" y1="48.9143" x2="137.23" y2="172.597" gradientUnits="userSpaceOnUse">
<stop stop-color="#EC008C"/>
<stop offset="1" stop-color="#00AFDB"/>
</linearGradient>
<clipPath id="clip0_76_1395">
<rect width="172.082" height="172.082" fill="white" transform="translate(0 61.6676) scale(1.00369) rotate(-20.9189)"/>
</clipPath>
</defs>
</svg>
